<svg width="42" height="42" xmlns="http://www.w3.org/2000/svg" fill="none">

 <g>
  <title>Layer 1</title>
  <circle id="svg_2" stroke-width="2" stroke="black" r="19.1818" cy="21.0001" cx="21.0002"/>
  <g/>
  <g/>
  <g/>
  <g/>
  <g/>
  <g/>
  <g/>
  <g/>
  <g/>
  <g/>
  <g/>
  <g/>
  <g/>
  <g/>
  <g/>
  <g/>
  <g/>
  <g/>
  <g/>
  <g/>
  <g/>
  <g/>
  <g/>
  <g/>
  <g/>
  <g/>
  <g/>
  <g/>
  <g/>
  <g/>
  <g id="svg_4">
   <path fill="#000000" d="m20.47907,25.5695c-1.338,0 -2.289,0.951 -2.289,2.34c0,1.336 0.926,2.339 2.289,2.339c1.414,0 2.314,-1.003 2.314,-2.339c-0.027,-1.389 -0.928,-2.34 -2.314,-2.34z"/>
   <path fill="#000000" d="m20.974,12.3245c-1.824,0 -3.34,0.513 -4.293,1.053l0.875,2.804c0.668,-0.462 1.697,-0.772 2.545,-0.772c1.285,0.027 1.879,0.644 1.879,1.543c0,0.85 -0.67,1.697 -1.494,2.701c-1.156,1.364 -1.594,2.701 -1.516,4.012l0.025,0.669l3.42,0l0,-0.463c-0.025,-1.158 0.387,-2.162 1.311,-3.215c0.979,-1.08 2.211,-2.366 2.211,-4.321c0,-2.135 -1.566,-4.011 -4.963,-4.011z"/>
  </g>
 </g>
</svg>