<svg width="42" height="42" xmlns="http://www.w3.org/2000/svg" fill="none">
 <g id="Layer_1">
  <title>Layer 1</title>
  <circle id="svg_3" cx="21" cy="21" r="19.1818" stroke="black" stroke-width="2"/>
  <g>

   <g fill-rule=" nonzero" fill=" none" stroke-miterlimit="10" stroke-linejoin=" miter" stroke-linecap=" butt" stroke-dasharray=" none" stroke-width="0" stroke=" none" transform="translate(1.40659, 1.40659) scale(2.81)">
    <path fill-rule=" nonzero" fill=" rgb(0,0,0)" stroke-miterlimit="10" stroke-linejoin=" miter" stroke-dasharray=" none" stroke=" none" stroke-linecap=" butt" d="m7.59633,10.97924l-1.24718,0c-0.25181,0 -0.45671,-0.20771 -0.45671,-0.46297l0,-0.18822c0,-0.02929 -0.01678,-0.05645 -0.03987,-0.06455c-0.13016,-0.0455 -0.25954,-0.0999 -0.38425,-0.16168c-0.02161,-0.01051 -0.05059,-0.0041 -0.07044,0.01603l-0.13315,0.13497c-0.08616,0.08743 -0.20095,0.1356 -0.32295,0.1356c-0.122,0 -0.2367,-0.04817 -0.32295,-0.13569l-0.88172,-0.89398c-0.17803,-0.18047 -0.17803,-0.47419 0,-0.65475l0.13315,-0.13497c0.01959,-0.01985 0.02626,-0.04986 0.0159,-0.07123c-0.06104,-0.12669 -0.11479,-0.25775 -0.15967,-0.3897c-0.00808,-0.02333 -0.03478,-0.04024 -0.06368,-0.04024l-0.18567,0c-0.25181,0 -0.45671,-0.20771 -0.45671,-0.46297l0,-1.26427c0,-0.25526 0.20491,-0.46297 0.45671,-0.46297l0.18576,0c0.0289,0 0.0556,-0.01692 0.06359,-0.04042c0.04506,-0.13204 0.09872,-0.26318 0.15959,-0.38943c0.01054,-0.0219 0.00404,-0.05128 -0.0159,-0.0714l-0.13306,-0.13489c-0.17803,-0.18056 -0.17803,-0.47428 0,-0.65475l0.8819,-0.89407c0.08625,-0.08743 0.20095,-0.13551 0.32295,-0.13551c0.122,0 0.2367,0.04817 0.32295,0.13551l0.13315,0.13506c0.01967,0.01985 0.0491,0.02671 0.07035,0.01603c0.12454,-0.0617 0.25392,-0.11619 0.38425,-0.16186c0.0231,-0.0081 0.03979,-0.03517 0.03979,-0.06446l0,-0.18822c0,-0.25526 0.20491,-0.46297 0.45671,-0.46297l1.24718,0c0.25181,0 0.45671,0.20771 0.45671,0.46297l0,0.18831c0,0.02929 0.01669,0.05636 0.03979,0.06446c0.13016,0.04559 0.25945,0.10007 0.38425,0.16186c0.02169,0.01051 0.0505,0.00401 0.07044,-0.01612l0.13315,-0.13497c0.17803,-0.18047 0.46778,-0.18047 0.6459,0l0.88181,0.89389c0.17803,0.18056 0.17803,0.47428 0,0.65475l-0.13315,0.13497c-0.01994,0.02021 -0.02644,0.0495 -0.0159,0.0714c0.06104,0.12643 0.11479,0.25757 0.15967,0.38961c0.0079,0.02333 0.03469,0.04024 0.06359,0.04024l0.18576,0c0.25181,0 0.45671,0.20771 0.45671,0.46297l0,1.26427c0,0.25526 -0.20491,0.46297 -0.45671,0.46297l-0.18567,0c-0.0289,0 -0.05568,0.01692 -0.06368,0.04042c-0.04479,0.13159 -0.09846,0.26265 -0.15941,0.38934c-0.01045,0.02172 -0.00386,0.05164 0.01572,0.07149l0.13315,0.13497c0.17803,0.18047 0.17803,0.47419 0,0.65475l-0.88198,0.89389c-0.08625,0.08743 -0.20095,0.1356 -0.32295,0.1356c-0.12208,0 -0.23679,-0.04826 -0.32304,-0.13578l-0.13297,-0.13471c-0.02003,-0.02012 -0.04892,-0.02689 -0.07053,-0.0162c-0.12472,0.06188 -0.25409,0.11637 -0.38434,0.16186c-0.02301,0.00801 -0.0397,0.03517 -0.0397,0.06446l0,0.18831c0.00009,0.25526 -0.20482,0.46297 -0.45663,0.46297zm-1.08909,-0.62323l0.93099,0l0,-0.02796c0,-0.29577 0.18233,-0.55842 0.45382,-0.6535c0.1068,-0.03739 0.21272,-0.082 0.31513,-0.13275c0.25787,-0.12767 0.56922,-0.07319 0.77501,0.13542l0.02134,0.02155l0.65828,-0.6673l-0.02125,-0.02164c-0.20596,-0.20869 -0.25954,-0.52449 -0.13341,-0.78572c0.04997,-0.10381 0.09398,-0.21128 0.13069,-0.31918c0.0938,-0.27538 0.35299,-0.46021 0.64476,-0.46021l0.02767,0l0,-0.94384l-0.02758,0c-0.29177,0 -0.55087,-0.18483 -0.64467,-0.46003c-0.03689,-0.10826 -0.08089,-0.21564 -0.13095,-0.31945c-0.12595,-0.2614 -0.07228,-0.57711 0.13359,-0.78572l0.02125,-0.02164l-0.65828,-0.6673l-0.02134,0.02164c-0.20587,0.20869 -0.51732,0.26292 -0.77501,0.13533c-0.10241,-0.05075 -0.20842,-0.09535 -0.31504,-0.13275c-0.27148,-0.095 -0.4539,-0.35765 -0.4539,-0.6535l0,-0.02796l-0.93108,0l0,0.02796c0,0.29586 -0.18242,0.55842 -0.4539,0.6535c-0.10689,0.03739 -0.2129,0.08209 -0.31504,0.13275c-0.25787,0.12767 -0.56922,0.07327 -0.7751,-0.13533l-0.02134,-0.02164l-0.65828,0.6673l0.02134,0.02164c0.20578,0.20869 0.25945,0.52441 0.1335,0.78572c-0.04989,0.10355 -0.09398,0.21101 -0.13087,0.31936c-0.0938,0.27529 -0.3529,0.46012 -0.64467,0.46012l-0.02767,0l0,0.94375l0.02758,0c0.29186,0 0.55087,0.18492 0.64467,0.46012c0.0368,0.10809 0.08089,0.21555 0.13095,0.31945c0.12604,0.26113 0.07237,0.57685 -0.1335,0.78554l-0.02134,0.02164l0.65837,0.6673l0.02125,-0.02155c0.20587,-0.20887 0.5174,-0.263 0.77518,-0.13533c0.10223,0.05057 0.20816,0.09527 0.31487,0.13257c0.27157,0.09509 0.4539,0.35782 0.4539,0.65359l0,0.02805l0.00009,0zm0.46796,-1.12164c-0.5918,0 -1.1597,-0.23612 -1.58014,-0.66232c-0.46242,-0.46876 -0.69798,-1.11835 -0.64634,-1.78209c0.08519,-1.09475 0.96384,-1.98544 2.04379,-2.0718c0.65494,-0.05235 1.29557,0.18652 1.758,0.6552c0.46242,0.46885 0.69798,1.11835 0.64643,1.78218c-0.08528,1.09484 -0.96393,1.98544 -2.04388,2.0718l0,0c-0.05946,0.00472 -0.11875,0.00703 -0.17785,0.00703zm-0.00518,-3.90001c-0.04295,0 -0.08599,0.00178 -0.1292,0.00516c-0.78159,0.0625 -1.41757,0.70719 -1.47922,1.49959c-0.0375,0.48167 0.13315,0.95266 0.46822,1.29232s0.79925,0.51292 1.27493,0.47464l0,0c0.78159,-0.06241 1.41766,-0.70701 1.47931,-1.4995c0.0375,-0.48167 -0.13324,-0.95274 -0.46822,-1.29241c-0.30468,-0.30877 -0.71651,-0.4798 -1.14582,-0.4798z"/>
   </g>
  </g>
 </g>

</svg>